<svg width="27" height="23" viewBox="0 0 27 23" fill="none" xmlns="http://www.w3.org/2000/svg">
<path fill-rule="evenodd" clip-rule="evenodd" d="M3.69316 20.1966L1.55859 0.653076H25.0141L22.8772 20.1934L13.2722 22.3674L3.69316 20.1966Z" fill="#0071BC"/>
<path fill-rule="evenodd" clip-rule="evenodd" d="M13.306 20.7048L21.0578 18.9639L22.874 2.28076H13.306V20.7048Z" fill="#29ABE2"/>
<path fill-rule="evenodd" clip-rule="evenodd" d="M6.44458 9.46077L6.70171 11.8542L13.306 9.46077V7.06348L6.44458 9.46077Z" fill="#B3B3B3"/>
<path fill-rule="evenodd" clip-rule="evenodd" d="M20.6205 4.50464L13.306 7.06363V9.46093L20.3683 6.89806L20.6205 4.50464Z" fill="#E6E6E6"/>
<path fill-rule="evenodd" clip-rule="evenodd" d="M13.3061 15.7232L13.2834 15.726L10.0081 15.008L9.79415 13.0989H6.84644L7.25779 16.8599L13.2827 18.2217L13.3061 18.2172V15.7232Z" fill="#E6E6E6"/>
<path fill-rule="evenodd" clip-rule="evenodd" d="M13.306 9.46094V11.8544H16.8919L16.566 14.9836L13.306 15.7253V18.2191L19.311 16.8573L20.1017 9.46094H13.306Z" fill="white"/>
<path fill-rule="evenodd" clip-rule="evenodd" d="M13.306 9.46094H6.44458L6.70171 11.8544H13.306V9.46094Z" fill="#E6E6E6"/>
<path fill-rule="evenodd" clip-rule="evenodd" d="M13.3061 6.89806V4.50464H13.2763H5.92334L6.18352 6.89806H13.3061Z" fill="#E6E6E6"/>
<path fill-rule="evenodd" clip-rule="evenodd" d="M13.306 4.50464V6.86804V6.89806H20.3683L20.6205 4.50464H13.306Z" fill="white"/>
</svg>
