<svg width="27" height="22" viewBox="0 0 27 22" fill="none" xmlns="http://www.w3.org/2000/svg">
<g clip-path="url(#clip0_68_395)">
<path d="M8.90135 21.7142C11.3486 21.7142 13.3347 20.0928 13.3347 18.0951V14.4761H8.90135C6.45415 14.4761 4.46802 16.0974 4.46802 18.0951C4.46802 20.0928 6.45415 21.7142 8.90135 21.7142Z" fill="#0ACF83"/>
<path d="M4.46802 10.8571C4.46802 8.85937 6.45415 7.23804 8.90135 7.23804H13.3347V14.4761H8.90135C6.45415 14.4761 4.46802 12.8548 4.46802 10.8571Z" fill="#A259FF"/>
<path d="M4.46802 3.61905C4.46802 1.62133 6.45415 0 8.90135 0H13.3347V7.2381H8.90135C6.45415 7.2381 4.46802 5.61676 4.46802 3.61905Z" fill="#F24E1E"/>
<path d="M13.3346 0H17.7679C20.2151 0 22.2013 1.62133 22.2013 3.61905C22.2013 5.61676 20.2151 7.2381 17.7679 7.2381H13.3346V0Z" fill="#FF7262"/>
<path d="M22.2013 10.8571C22.2013 12.8548 20.2151 14.4761 17.7679 14.4761C15.3207 14.4761 13.3346 12.8548 13.3346 10.8571C13.3346 8.85937 15.3207 7.23804 17.7679 7.23804C20.2151 7.23804 22.2013 8.85937 22.2013 10.8571Z" fill="#1ABCFE"/>
</g>
<defs>
<clipPath id="clip0_68_395">
<rect width="26.6" height="21.7143" fill="white"/>
</clipPath>
</defs>
</svg>
