<svg width="144" height="157" viewBox="0 0 144 157" fill="none" xmlns="http://www.w3.org/2000/svg">
<g filter="url(#filter0_d_68_601)">
<path d="M105 42.521H105.06M42 13.0835H102C118.569 13.0835 132 27.7275 132 45.7918V111.209C132 129.273 118.569 143.917 102 143.917H42C25.4315 143.917 12 129.273 12 111.209V45.7918C12 27.7275 25.4315 13.0835 42 13.0835ZM96 74.3789C96.7405 79.8232 95.8875 85.3834 93.5626 90.2687C91.2376 95.154 87.5589 99.1157 83.0498 101.59C78.5406 104.065 73.4307 104.926 68.4467 104.051C63.4628 103.177 58.8586 100.612 55.289 96.7198C51.7195 92.828 49.3664 87.8081 48.5644 82.3742C47.7624 76.9403 48.5524 71.3691 50.822 66.4529C53.0915 61.5367 56.7251 57.5259 61.2059 54.991C65.6867 52.4561 70.7865 51.5262 75.78 52.3335C80.8735 53.157 85.5891 55.7447 89.2302 59.7145C92.8712 63.6843 95.2447 68.8255 96 74.3789Z" stroke="#1E1E1E" stroke-width="4" stroke-linecap="round" stroke-linejoin="round"/>
</g>
<defs>
<filter id="filter0_d_68_601" x="-4" y="0" width="152" height="165" filterUnits="userSpaceOnUse" color-interpolation-filters="sRGB">
<feFlood flood-opacity="0" result="BackgroundImageFix"/>
<feColorMatrix in="SourceAlpha" type="matrix" values="0 0 0 0 0 0 0 0 0 0 0 0 0 0 0 0 0 0 127 0" result="hardAlpha"/>
<feOffset dy="4"/>
<feGaussianBlur stdDeviation="2"/>
<feComposite in2="hardAlpha" operator="out"/>
<feColorMatrix type="matrix" values="0 0 0 0 0 0 0 0 0 0 0 0 0 0 0 0 0 0 0.25 0"/>
<feBlend mode="normal" in2="BackgroundImageFix" result="effect1_dropShadow_68_601"/>
<feBlend mode="normal" in="SourceGraphic" in2="effect1_dropShadow_68_601" result="shape"/>
</filter>
</defs>
</svg>
