<svg width="27" height="22" viewBox="0 0 27 22" fill="none" xmlns="http://www.w3.org/2000/svg">
<g clip-path="url(#clip0_68_410)">
<path fill-rule="evenodd" clip-rule="evenodd" d="M13.3236 21.4204C12.9662 21.4204 12.6328 21.3426 12.3231 21.2065L9.155 19.6703C8.6786 19.4564 8.9168 19.3787 9.05972 19.3398C9.70287 19.1648 9.82197 19.1259 10.4889 18.8148C10.5604 18.7759 10.6557 18.7953 10.7271 18.8342L13.1568 20.0204C13.2521 20.0592 13.3712 20.0592 13.4427 20.0204L22.9469 15.5285C23.0422 15.4896 23.0899 15.4119 23.0899 15.3146V6.35044C23.0899 6.25321 23.0422 6.17543 22.9469 6.13654L13.4427 1.66417C13.3474 1.62528 13.2283 1.62528 13.1568 1.66417L3.65252 6.13654C3.55724 6.17543 3.5096 6.27266 3.5096 6.35044V15.3146C3.5096 15.3924 3.55724 15.4896 3.65252 15.5285L6.24893 16.7536C7.65433 17.3369 8.53568 16.6564 8.53568 15.9758V7.12824C8.53568 7.01157 8.65478 6.8949 8.82152 6.8949H10.0364C10.1793 6.8949 10.3222 6.99213 10.3222 7.12824V15.9758C10.3222 17.5119 9.29792 18.4064 7.5114 18.4064C6.96354 18.4064 6.53477 18.4064 5.31994 17.9203L2.81881 16.7536C2.19948 16.4619 1.81836 15.9174 1.81836 15.3341V6.36988C1.81836 5.78653 2.19948 5.24207 2.81881 4.95039L12.3231 0.458568C12.9186 0.186337 13.7285 0.186337 14.324 0.458568L23.8283 4.95039C24.4476 5.24207 24.8287 5.78653 24.8287 6.36988V15.3341C24.8287 15.9174 24.4476 16.4619 23.8283 16.7536L14.324 21.2454C14.0143 21.3621 13.657 21.4204 13.3236 21.4204ZM16.2534 15.2563C12.0849 15.2563 11.2274 13.7007 11.2274 12.3784C11.2274 12.2618 11.3465 12.1451 11.5132 12.1451H12.7519C12.8948 12.1451 13.0139 12.2229 13.0139 12.3395C13.2044 13.3701 13.7523 13.8757 16.2773 13.8757C18.2782 13.8757 19.1357 13.5062 19.1357 12.6312C19.1357 12.1256 18.8975 11.7562 15.777 11.5034C13.1806 11.2895 11.5609 10.8228 11.5609 9.13109C11.5609 7.55604 13.1806 6.62267 15.8961 6.62267C18.9451 6.62267 20.4458 7.47826 20.6364 9.34499C20.6364 9.40332 20.6126 9.46166 20.5649 9.51999C20.5173 9.55888 20.4458 9.59777 20.3743 9.59777H19.1357C19.0166 9.59777 18.8975 9.51999 18.8737 9.42277C18.5878 8.35329 17.8494 8.00327 15.8961 8.00327C13.7047 8.00327 13.4427 8.62552 13.4427 9.0922C13.4427 9.65611 13.7523 9.83111 16.706 10.1422C19.6359 10.4534 21.0175 10.9006 21.0175 12.5729C20.9937 14.284 19.2786 15.2563 16.2534 15.2563Z" fill="#539E43"/>
</g>
<defs>
<clipPath id="clip0_68_410">
<rect width="26.6" height="21.7143" fill="white"/>
</clipPath>
</defs>
</svg>
