<svg width="21" height="22" viewBox="0 0 21 22" fill="none" xmlns="http://www.w3.org/2000/svg">
<path d="M17.2662 7.54734C17.0484 7.46879 16.8226 7.39446 16.5902 7.32417C16.6284 7.16084 16.6635 6.99962 16.6946 6.84114C17.2064 4.23886 16.8718 2.14244 15.7293 1.45221C14.6337 0.790376 12.8421 1.48045 11.0326 3.13017C10.8586 3.2888 10.6841 3.45676 10.5097 3.63278C10.3935 3.51632 10.2775 3.40378 10.1618 3.29613C8.26537 1.53214 6.36453 0.78877 5.22314 1.481C4.12866 2.14475 3.80455 4.11558 4.26518 6.58178C4.30966 6.81999 4.36165 7.06325 4.42045 7.31058C4.15143 7.39059 3.89171 7.47588 3.64321 7.56661C1.41991 8.37867 0 9.65136 0 10.9715C0 12.3349 1.52427 13.7024 3.84002 14.5316C4.02277 14.5971 4.2124 14.6589 4.40782 14.7177C4.34438 14.9852 4.28921 15.2473 4.2429 15.503C3.80369 17.9264 4.14668 19.8507 5.23824 20.5102C6.36573 21.1914 8.25796 20.4912 10.1005 18.8039C10.2462 18.6705 10.3923 18.5291 10.5387 18.3808C10.7285 18.5723 10.918 18.7535 11.1064 18.9234C12.8912 20.5324 14.6539 21.1821 15.7444 20.5207C16.8708 19.8376 17.2369 17.7705 16.7616 15.2555C16.7253 15.0634 16.6831 14.8672 16.6357 14.6674C16.7685 14.6263 16.899 14.5838 17.0262 14.5396C19.4336 13.704 21 12.3531 21 10.9715C21 9.64658 19.5343 8.36531 17.2662 7.54734ZM16.7441 13.6475C16.6292 13.6874 16.5114 13.7258 16.3913 13.7632C16.1256 12.8817 15.7669 11.9444 15.3279 10.9761C15.7468 10.0307 16.0916 9.10543 16.35 8.2297C16.5648 8.29482 16.7733 8.36351 16.9742 8.436C18.9175 9.13684 20.1029 10.173 20.1029 10.9715C20.1029 11.8219 18.8227 12.926 16.7441 13.6475ZM15.8816 15.438C16.0917 16.5501 16.1217 17.5555 15.9825 18.3416C15.8574 19.0478 15.6059 19.5187 15.2949 19.7073C14.6331 20.1086 13.2178 19.587 11.6915 18.211C11.5165 18.0533 11.3403 17.8848 11.1635 17.7066C11.7552 17.0286 12.3466 16.2404 12.9238 15.3651C13.939 15.2707 14.8981 15.1164 15.7679 14.9058C15.8107 15.0868 15.8488 15.2644 15.8816 15.438ZM7.15937 19.638C6.51278 19.8772 5.9978 19.8841 5.6865 19.696C5.0241 19.2958 4.74872 17.7508 5.12435 15.6783C5.16737 15.4409 5.21858 15.1971 5.2776 14.9479C6.13786 15.1472 7.08996 15.2906 8.10759 15.377C8.68865 16.2336 9.29712 17.0209 9.9103 17.7102C9.77633 17.8457 9.64288 17.9747 9.51019 18.0963C8.69542 18.8424 7.87893 19.3717 7.15937 19.638ZM4.13016 13.6423C3.10618 13.2757 2.26054 12.7991 1.68089 12.2791C1.16004 11.8118 0.897076 11.3479 0.897076 10.9715C0.897076 10.1704 2.03712 9.14858 3.93851 8.45409C4.16922 8.36981 4.41073 8.2904 4.66136 8.2158C4.92414 9.1113 5.26886 10.0476 5.68486 10.9943C5.26348 11.9552 4.91386 12.9063 4.6485 13.8123C4.46983 13.7585 4.29672 13.7019 4.13016 13.6423ZM5.14558 6.4013C4.75092 4.28832 5.01303 2.69436 5.6726 2.29438C6.37515 1.86829 7.92869 2.47581 9.56607 3.99893C9.67073 4.09628 9.77581 4.19817 9.88118 4.30359C9.27103 4.98994 8.66813 5.77133 8.09222 6.62282C7.10458 6.71872 6.15917 6.87278 5.28994 7.07907C5.23529 6.84877 5.18688 6.62251 5.14558 6.4013ZM14.204 8.74457C13.9962 8.36856 13.7829 8.00144 13.5654 7.64434C14.2355 7.73308 14.8774 7.85087 15.4803 7.99502C15.2993 8.6027 15.0737 9.23806 14.8082 9.88941C14.6177 9.51054 14.4162 9.12853 14.204 8.74457ZM10.51 4.97526C10.9238 5.4449 11.3382 5.96925 11.7458 6.53816C11.3351 6.51784 10.9193 6.50726 10.5 6.50726C10.0847 6.50726 9.67196 6.5176 9.26378 6.53757C9.67178 5.97395 10.0898 5.4503 10.51 4.97526ZM6.79234 8.75107C6.58477 9.12814 6.38704 9.50807 6.19954 9.8887C5.93829 9.23963 5.7148 8.60137 5.53224 7.98507C6.13139 7.84461 6.77033 7.72975 7.4361 7.6427C7.21556 8.00308 7.00047 8.37291 6.79234 8.751V8.75107ZM7.45527 14.3673C6.76741 14.2869 6.11887 14.1779 5.51986 14.0414C5.70534 13.4141 5.93377 12.7622 6.20055 12.0991C6.38853 12.4795 6.58705 12.8596 6.79589 13.2374H6.79593C7.00866 13.6224 7.22905 13.9995 7.45527 14.3673ZM10.5348 17.0339C10.1096 16.5533 9.68553 16.0217 9.27133 15.4499C9.67342 15.4664 10.0834 15.4748 10.5 15.4748C10.928 15.4748 11.3512 15.4647 11.7677 15.4453C11.3587 16.0275 10.9458 16.5599 10.5348 17.0339ZM14.8167 12.0653C15.0974 12.7355 15.334 13.384 15.5219 14.0006C14.913 14.1461 14.2556 14.2634 13.563 14.3504C13.781 13.9885 13.9962 13.6151 14.2076 13.231C14.4215 12.8424 14.6247 12.4532 14.8167 12.0653ZM13.4305 12.7615C13.1023 13.3577 12.7652 13.927 12.4231 14.4643C11.8 14.511 11.1562 14.535 10.5 14.535C9.84649 14.535 9.21081 14.5137 8.59868 14.4721C8.24275 13.9278 7.89841 13.3568 7.57223 12.7666H7.57231C7.24699 12.1779 6.94758 11.5843 6.67628 10.994C6.94751 10.4024 7.24613 9.80807 7.56958 9.22048L7.56951 9.2206C7.89381 8.63144 8.23513 8.06331 8.58777 7.52236C9.21231 7.4729 9.85273 7.44709 10.5 7.44709H10.5C11.1501 7.44709 11.7914 7.4731 12.4157 7.52299C12.763 8.05998 13.102 8.62627 13.4276 9.21551C13.7569 9.81136 14.0593 10.4017 14.3329 10.9807C14.0602 11.5696 13.7584 12.1659 13.4305 12.7615ZM15.2812 2.26642C15.9844 2.69127 16.2579 4.40466 15.816 6.65145C15.7878 6.79481 15.7561 6.94084 15.7216 7.08882C14.8504 6.87822 13.9043 6.7215 12.9138 6.62415C12.3368 5.76331 11.7388 4.9807 11.1386 4.30316C11.3 4.14053 11.4611 3.98546 11.6216 3.83912C13.1719 2.42565 14.621 1.86758 15.2812 2.26642ZM10.5 9.00694C11.5356 9.00694 12.3752 9.88647 12.3752 10.9715C12.3752 12.0564 11.5356 12.936 10.5 12.936C9.46436 12.936 8.62477 12.0564 8.62477 10.9715C8.62477 9.88647 9.46436 9.00694 10.5 9.00694Z" fill="#00D8FF"/>
</svg>
