<svg width="155" height="153" viewBox="0 0 155 153" fill="none" xmlns="http://www.w3.org/2000/svg">
<path d="M148.542 19.1251C142.357 23.4313 135.51 26.7248 128.263 28.8789C124.373 24.4643 119.204 21.3353 113.454 19.9152C107.704 18.495 101.651 18.8523 96.1135 20.9385C90.576 23.0248 85.8212 26.7394 82.4922 31.5801C79.1632 36.4207 77.4206 42.1538 77.5 48.0039V54.3789C66.1504 54.6694 54.9041 52.1847 44.7628 47.1461C34.6215 42.1075 25.9 34.6714 19.375 25.5001C19.375 25.5001 -6.45829 82.8751 51.6667 108.375C38.366 117.287 22.5213 121.756 6.45837 121.125C64.5834 153 135.625 121.125 135.625 47.8126C135.619 46.0369 135.446 44.2656 135.108 42.5214C141.7 36.1049 146.351 28.0037 148.542 19.1251Z" stroke="#1E1E1E" stroke-width="4" stroke-linecap="round" stroke-linejoin="round"/>
</svg>
