<svg width="27" height="22" viewBox="0 0 27 22" fill="none" xmlns="http://www.w3.org/2000/svg">
<g clip-path="url(#clip0_68_416)">
<mask id="mask0_68_416" style="mask-type:alpha" maskUnits="userSpaceOnUse" x="0" y="0" width="27" height="22">
<path d="M18.7891 21.4263C19.2064 21.5591 19.6823 21.5505 20.1036 21.3851L25.5588 19.2423C26.132 19.0171 26.4965 18.5435 26.4965 18.0239V3.49439C26.4965 2.97484 26.132 2.50125 25.5588 2.27608L20.1036 0.133214C19.5508 -0.0839242 18.9038 -0.0307389 18.4187 0.257194C18.3493 0.298326 18.2833 0.34425 18.2214 0.394861L7.77807 8.17252L3.22918 5.35376C2.80572 5.09136 2.21342 5.11286 1.82013 5.4049L0.361155 6.48829C-0.11991 6.84552 -0.120462 7.46333 0.359964 7.82113L4.30491 10.7591L0.359964 13.6971C-0.120462 14.055 -0.11991 14.6728 0.361155 15.03L1.82013 16.1133C2.21342 16.4054 2.80572 16.4269 3.22918 16.1645L7.77807 13.3457L18.2214 21.1234C18.3866 21.2584 18.5806 21.36 18.7891 21.4263ZM19.8764 5.84893L11.9523 10.7591L19.8764 15.6693V5.84893Z" fill="white"/>
</mask>
<g mask="url(#mask0_68_416)">
<path d="M25.5749 2.27949L20.1155 0.133666C19.4836 -0.114712 18.7284 -0.00994041 18.2324 0.394908L0.360182 13.6972C-0.120536 14.055 -0.119983 14.6728 0.361375 15.0301L1.82124 16.1134C2.21477 16.4055 2.80743 16.427 3.23114 16.1646L24.7534 2.83617C25.4755 2.38902 26.5126 2.80942 26.5126 3.54926V3.49751C26.5126 2.97819 26.1481 2.50478 25.5749 2.27949Z" fill="#0065A9"/>
<path d="M25.5749 19.2388L20.1155 21.3846C19.4836 21.6329 18.7284 21.5281 18.2324 21.1233L0.360182 7.82103C-0.120536 7.46323 -0.119983 6.8454 0.361375 6.48818L1.82124 5.40479C2.21477 5.11275 2.80743 5.09124 3.23114 5.35365L24.7534 18.682C25.4755 19.1292 26.5126 18.7088 26.5126 17.9689V18.0207C26.5126 18.54 26.1481 19.0134 25.5749 19.2388Z" fill="#007ACC"/>
<path d="M20.0984 21.3865C19.4663 21.6347 18.7111 21.5298 18.2151 21.1249C18.8262 21.6238 19.8711 21.2704 19.8711 20.5649V0.956283C19.8711 0.250778 18.8262 -0.102544 18.2151 0.396326C18.7111 -0.00856047 19.4663 -0.11348 20.0984 0.134679L25.5569 2.27755C26.1305 2.50272 26.4952 2.9763 26.4952 3.49586V18.0254C26.4952 18.545 26.1305 19.0185 25.5569 19.2437L20.0984 21.3865Z" fill="#1F9CF0"/>
<path d="M18.7891 21.4261C19.2065 21.5588 19.6824 21.5503 20.1035 21.3849L25.5587 19.242C26.132 19.0168 26.4965 18.5433 26.4965 18.0237V3.49414C26.4965 2.97459 26.132 2.50101 25.5588 2.27584L20.1035 0.13297C19.5508 -0.0841684 18.9038 -0.0309831 18.4186 0.256949C18.3494 0.298082 18.2833 0.344006 18.2213 0.394616L7.77806 8.17227L3.22917 5.35351C2.80573 5.09112 2.21341 5.11262 1.82013 5.40465L0.361155 6.48805C-0.11991 6.84527 -0.120462 7.46309 0.359964 7.8209L4.30492 10.7589L0.359964 13.6969C-0.120462 14.0547 -0.11991 14.6725 0.361155 15.0298L1.82013 16.1131C2.21341 16.4052 2.80573 16.4267 3.22917 16.1643L7.77806 13.3455L18.2213 21.1232C18.3865 21.2581 18.5806 21.3598 18.7891 21.4261ZM19.8764 5.84868L11.9523 10.7589L19.8764 15.6691V5.84868Z" fill="url(#paint0_linear_68_416)" fill-opacity="0.25"/>
</g>
</g>
<defs>
<linearGradient id="paint0_linear_68_416" x1="13.2483" y1="-0.000244225" x2="13.2483" y2="21.518" gradientUnits="userSpaceOnUse">
<stop stop-color="white"/>
<stop offset="1" stop-color="white" stop-opacity="0"/>
</linearGradient>
<clipPath id="clip0_68_416">
<rect width="26.6" height="21.5446" fill="white"/>
</clipPath>
</defs>
</svg>
